<svg width="18" height="21" viewBox="0 0 18 21" fill="none" xmlns="http://www.w3.org/2000/svg">
<path d="M2.50004 12.1667C2.50004 13.1056 2.68962 13.9948 3.06879 14.8344C3.44796 15.674 3.98962 16.4097 4.69379 17.0417C4.67574 16.9514 4.66671 16.8701 4.66671 16.7979V16.5542C4.66671 15.9764 4.77504 15.4347 4.99171 14.9292C5.20837 14.4236 5.52435 13.9632 5.93962 13.5479L9.00004 10.5417L12.0605 13.5479C12.4757 13.9632 12.7917 14.4236 13.0084 14.9292C13.225 15.4347 13.3334 15.9764 13.3334 16.5542V16.7979C13.3334 16.8701 13.3243 16.9514 13.3063 17.0417C14.0105 16.4097 14.5521 15.674 14.9313 14.8344C15.3105 13.9948 15.5 13.1056 15.5 12.1667C15.5 11.2639 15.333 10.4108 14.999 9.60729C14.665 8.80382 14.182 8.08611 13.55 7.45417C13.1889 7.68889 12.8098 7.86493 12.4125 7.98229C12.0153 8.09965 11.6091 8.15833 11.1938 8.15833C10.0743 8.15833 9.10386 7.7882 8.28233 7.04792C7.46081 6.30764 6.98685 5.39583 6.86046 4.3125C6.15629 4.90833 5.53337 5.52674 4.99171 6.16771C4.45004 6.80868 3.99414 7.45868 3.624 8.11771C3.25386 8.77674 2.974 9.44931 2.78442 10.1354C2.59483 10.8215 2.50004 11.4986 2.50004 12.1667ZM9.00004 13.575L7.45629 15.0917C7.25768 15.2903 7.10421 15.516 6.99587 15.7688C6.88754 16.0215 6.83337 16.2833 6.83337 16.5542C6.83337 17.1319 7.04553 17.6285 7.46983 18.0438C7.89414 18.459 8.40421 18.6667 9.00004 18.6667C9.59588 18.6667 10.1059 18.459 10.5303 18.0438C10.9546 17.6285 11.1667 17.1319 11.1667 16.5542C11.1667 16.2653 11.1125 15.999 11.0042 15.7552C10.8959 15.5115 10.7424 15.2903 10.5438 15.0917L9.00004 13.575ZM9.00004 0.25V3.825C9.00004 4.43889 9.21219 4.95347 9.6365 5.36875C10.0608 5.78403 10.5799 5.99167 11.1938 5.99167C11.5188 5.99167 11.8212 5.92396 12.1011 5.78854C12.3809 5.65313 12.6292 5.45 12.8459 5.17917L13.3334 4.58333C14.6695 5.34167 15.7257 6.39792 16.5021 7.75208C17.2785 9.10625 17.6667 10.5778 17.6667 12.1667C17.6667 14.5861 16.8271 16.6354 15.148 18.3146C13.4688 19.9938 11.4195 20.8333 9.00004 20.8333C6.5806 20.8333 4.53129 19.9938 2.85212 18.3146C1.17296 16.6354 0.333374 14.5861 0.333374 12.1667C0.333374 9.8375 1.11428 7.6257 2.67608 5.53125C4.23789 3.43681 6.34587 1.67639 9.00004 0.25Z" fill="url(#paint0_linear_17_267)"/>
<defs>
<linearGradient id="paint0_linear_17_267" x1="9.00004" y1="0.25" x2="9.00004" y2="20.8333" gradientUnits="userSpaceOnUse">
<stop stop-color="#FFE600"/>
<stop offset="0.549719" stop-color="#F46905"/>
<stop offset="0.75" stop-color="#FF1B00"/>
<stop offset="1" stop-color="#FF0000"/>
</linearGradient>
</defs>
</svg>
