<svg width="148" height="157" viewBox="0 0 148 157" fill="none" xmlns="http://www.w3.org/2000/svg">
<path fill-rule="evenodd" clip-rule="evenodd" d="M39.9486 0.855672C33.9095 2.47619 27.6286 6.8231 23.7618 12.0583C20.0309 17.1094 17.8797 22.8863 17.131 29.8625C16.851 32.4701 16.7011 32.7349 14.7614 34.0386C11.7528 36.0617 6.31893 42.3507 4.37058 46.065C3.44409 47.8313 2.1069 51.0921 1.39949 53.3107C0.267814 56.8589 0.11086 58.1337 0.0987952 63.8963C0.0827606 71.4071 0.775016 74.7968 3.48529 80.4785C5.76406 85.2552 8.80588 89.3353 12.3671 92.3925C13.9826 93.7795 15.7864 95.339 16.3762 95.8588C17.1533 96.544 17.449 97.3474 17.4512 98.7792C17.4585 103.512 21.0745 110.597 25.2883 114.136C30.4478 118.47 36.0235 119.975 43.3677 119.017C52.5762 117.817 59.4929 114.22 66.589 106.942C69.3205 104.14 69.3205 104.14 69.3293 111.683C69.3342 115.833 69.1025 120.134 68.8135 121.243C68.1286 123.873 64.9379 127.263 62.4569 127.997C61.1814 128.374 52.6927 128.572 36.6477 128.598C12.7393 128.638 12.7393 128.638 12.7463 133.191C12.7533 137.743 12.7533 137.743 38.5646 137.561C64.3759 137.378 64.3759 137.378 67.0478 136.046C68.5173 135.313 70.6028 133.867 71.6818 132.83C73.6439 130.947 73.6439 130.947 75.6118 132.824C76.6939 133.857 78.7839 135.297 80.2557 136.026C82.9316 137.35 82.9316 137.35 108.743 137.453C134.555 137.555 134.555 137.555 134.548 133.003C134.541 128.451 134.541 128.451 110.633 128.484C94.5877 128.508 86.0984 128.336 84.8218 127.962C82.3385 127.236 79.1374 123.856 78.4444 121.228C78.152 120.12 77.907 115.842 77.8992 111.72C77.8848 104.225 77.8849 104.225 81.1061 107.431C88.9401 115.227 97.4568 118.997 107.407 119.073C112.967 119.115 116.194 118.165 120.237 115.297C125.535 111.537 128.954 105.659 129.714 99.007C129.984 96.6424 130.293 95.8492 131.189 95.2249C136.311 91.6594 140.811 86.2539 143.647 80.2628C146.329 74.5949 147.019 71.1784 146.998 63.6701C146.981 57.8472 146.833 56.6701 145.663 53.0886C144.939 50.8722 143.586 47.6156 142.654 45.8521C140.696 42.1448 135.244 35.8721 132.228 33.8578C130.284 32.56 130.133 32.2957 129.845 29.689C128.508 17.579 122.385 8.06268 112.689 3.02572C108.118 0.650954 104.027 -0.154153 97.9457 0.124837C92.1172 0.391846 88.4064 1.55621 83.6403 4.61211C80.7319 6.47678 75.8463 11.3512 74.5529 13.6791C74.1036 14.4876 73.6146 15.1491 73.4656 15.1493C73.3167 15.1496 72.8256 14.4896 72.3738 13.6824C71.0732 11.3586 66.1727 6.49919 63.2585 4.64348C58.2359 1.4449 54.8192 0.432124 48.4638 0.258963C44.525 0.15163 41.8837 0.336619 39.9486 0.855672ZM40.8601 10.0584C33.7054 12.6917 27.9195 19.2765 26.3862 26.5316C25.9942 28.3868 25.9942 28.3869 28.686 27.9745C32.8068 27.3427 39.6395 27.5968 43.0566 28.5093C50.9204 30.6088 57.508 35.767 60.4558 42.1322C61.6889 44.7949 61.8553 45.6932 61.8586 49.6898C61.8615 53.3703 61.6692 54.6059 60.8396 56.2431C58.4565 60.9463 54.1523 63.5979 48.3239 63.9531C36.7819 64.6562 25.1939 57.1245 19.9714 45.5249C19.2099 43.8327 18.4365 42.4489 18.2533 42.4492C17.4216 42.4505 12.5822 48.861 11.2654 51.7049C7.51339 59.8107 7.49687 68.2397 11.2159 76.4343C12.5851 79.4505 16.7114 84.8468 18.3609 85.7786C19.0576 86.1722 19.5175 85.7683 21.0284 83.4371C23.1387 80.1801 26.4735 77.3406 30.5146 75.3588C34.1778 73.562 41.0218 73.0944 45.1507 74.3591C50.6882 76.055 54.0682 80.3654 54.0564 85.7171C54.0419 92.3667 49.0166 97.8748 40.913 100.124C37.8764 100.967 31.543 101.113 28.6481 100.406C27.6086 100.153 26.6721 100.036 26.5676 100.147C26.0731 100.672 29.4392 105.863 31.2042 107.296C33.6538 109.286 35.8239 109.951 39.8305 109.939C47.3518 109.916 54.2601 106.733 60.0881 100.605C64.5205 95.9454 67.3982 90.4708 68.577 84.454C69.6024 79.2206 69.5307 30.7929 68.4913 26.5938C66.4723 18.437 61.2114 12.482 53.9072 10.0867C50.1765 8.86328 44.143 8.84988 40.8601 10.0584ZM92.8519 10.0228C85.619 12.5573 80.4445 18.5158 78.4752 26.5784C77.4487 30.7807 77.5262 79.2084 78.5676 84.4386C80.9099 96.2009 90.2472 106.36 101.206 109.07C104.791 109.957 109.711 110.064 112.257 109.311C114.877 108.535 117.808 105.897 119.405 102.874C120.181 101.406 120.73 100.113 120.625 100.002C120.52 99.8916 119.584 100.011 118.545 100.268C115.653 100.983 109.319 100.857 106.28 100.023C98.1721 97.8002 93.1127 92.2914 93.1025 85.6762C93.0949 80.7553 95.3471 77.2447 99.964 74.9833C102.027 73.9726 103.096 73.8173 108.051 73.8097C113.493 73.8013 113.912 73.8763 116.994 75.4172C121.099 77.4686 123.916 79.9086 126.169 83.3614C128.27 86.5826 128.434 86.5511 132.075 82.2219C140.936 71.6862 140.776 55.9089 131.701 45.3191C130.267 43.6466 128.945 42.2788 128.761 42.2791C128.578 42.2794 127.723 43.7992 126.862 45.6562C121.474 57.2766 110.268 64.5411 98.7575 63.8754C92.9281 63.5382 88.6157 60.8999 86.2181 56.204C85.3835 54.5694 85.1874 53.3344 85.1789 49.6539C85.1699 45.6573 85.3336 44.7585 86.5585 42.0921C89.4867 35.7178 96.0584 30.5394 103.916 28.4156C107.33 27.4926 114.162 27.2175 118.285 27.8366C120.978 28.2406 120.978 28.2406 120.58 26.3866C119.257 20.2225 114.597 14.2338 108.747 11.1832C105.445 9.4611 104.831 9.31488 100.382 9.19573C96.6901 9.09659 94.9499 9.28775 92.8519 10.0228ZM31.3915 36.7123C30.6066 36.8123 29.173 37.1265 28.2062 37.4097C26.448 37.9255 26.448 37.9255 27.1535 40.0325C29.6682 47.5435 36.6529 53.5155 44.2654 54.6634C50.445 55.5948 53.5465 53.9844 53.5316 49.8513C53.5217 47.1459 51.4383 43.138 49.0359 41.2029C44.6103 37.6385 37.771 35.8977 31.3915 36.7123ZM107.858 36.7766C104.546 37.2665 100.591 39.0078 97.9755 41.1275C95.579 43.07 93.5079 47.0844 93.5064 49.7897C93.5042 53.9229 96.6107 55.5238 102.787 54.5733C110.389 53.4035 117.363 47.408 119.849 39.906C120.543 37.8129 120.543 37.8129 119.026 37.3062C116.736 36.5417 111.217 36.28 107.858 36.7766ZM34.4386 83.5071C32.0654 84.4346 29.5597 86.5159 28.3862 88.5351C27.86 89.44 27.4298 90.3075 27.43 90.4628C27.431 91.0973 33.0813 91.9191 35.8143 91.6826C40.9974 91.2336 45.8897 88.0324 45.4213 85.3963C45.0047 83.0534 38.4742 81.93 34.4386 83.5071ZM103.547 83.5192C102.633 84.0049 101.813 84.8111 101.726 85.3096C101.266 87.9472 106.168 91.1333 111.352 91.5663C114.086 91.7945 119.734 90.9552 119.733 90.3207C119.732 89.5042 117.6 86.5854 116.157 85.423C112.68 82.6227 106.881 81.7471 103.547 83.5192ZM71.1813 143.995C66.4725 146.499 64.671 146.701 46.9241 146.729C30.3714 146.754 30.3714 146.754 30.3788 151.581C30.3862 156.408 30.3863 156.408 47.3954 156.175C65.2499 155.93 65.6357 155.884 70.9426 153.383C73.6764 152.094 73.6764 152.094 76.4142 153.374C81.7288 155.859 82.1147 155.904 99.9699 156.094C116.98 156.275 116.98 156.275 116.972 151.448C116.965 146.621 116.965 146.621 100.412 146.646C82.8113 146.674 81.3005 146.514 76.281 144.097C74.9716 143.467 73.7932 142.918 73.6622 142.876C73.5313 142.836 72.415 143.339 71.1813 143.995Z" fill="url(#paint0_linear_8_7)"/>
<defs>
<linearGradient id="paint0_linear_8_7" x1="73.45" y1="0.113015" x2="73.6903" y2="156.199" gradientUnits="userSpaceOnUse">
<stop stop-color="#00EDB2"/>
<stop offset="1" stop-color="#4C42EA"/>
</linearGradient>
</defs>
</svg>
