<svg width="113" height="64" viewBox="0 0 113 64" fill="none" xmlns="http://www.w3.org/2000/svg">
<path d="M70.5313 14.5562C70.5313 17.4352 69.6805 20.2494 68.0864 22.6432C66.4923 25.0369 64.2267 26.9026 61.5758 28.0043C58.925 29.1061 56.0082 29.3943 53.1941 28.8327C50.38 28.271 47.7951 26.8847 45.7662 24.849C43.7374 22.8133 42.3557 20.2196 41.796 17.396C41.2362 14.5724 41.5235 11.6457 42.6215 8.98587C43.7195 6.32609 45.5789 4.05273 47.9646 2.45328C50.3502 0.853838 53.155 0.000142461 56.0242 0.000143519C57.9317 -0.00837401 59.822 0.362311 61.5859 1.09081C63.3498 1.8193 64.9524 2.89118 66.3012 4.24453C67.65 5.59789 68.7182 7.20593 69.4443 8.9758C70.1703 10.7457 70.5398 12.6423 70.5313 14.5562Z" fill="#F2F2F2"/>
<path d="M61.9572 11.0733L61.8854 11.2032C62.5243 9.62326 61.9433 7.67645 60.8036 6.48514C59.6639 5.29385 58.0794 4.74922 56.5193 4.53315C55.3612 4.32819 54.1702 4.42105 53.0576 4.80306C51.4629 5.41949 50.2444 6.84649 49.2271 8.33095C48.7618 9.00993 48.3043 9.784 48.3507 10.6326C48.3937 11.4202 48.8596 12.0885 49.2411 12.7567C49.6227 13.4248 49.9413 14.2538 49.6675 14.9831C49.5043 15.4176 49.1594 15.7306 48.8796 16.0861C48.5998 16.4416 48.3696 16.9221 48.5047 17.3682C48.5648 17.5388 48.6679 17.691 48.804 17.8097C48.9401 17.9284 49.1046 18.0096 49.2814 18.0455C49.6238 18.1028 49.9739 18.0945 50.3132 18.0209L59.2062 16.6728C59.8104 16.5812 60.3837 16.3443 60.877 15.9823C61.3703 15.6204 61.7691 15.1441 62.0393 14.5941C62.3096 14.0441 62.4432 13.4366 62.4289 12.8236C62.4146 12.2106 62.2528 11.6101 61.9572 11.0733Z" fill="#2F2E41"/>
<path d="M55.3427 16.6108C57.744 16.6108 59.6906 14.6575 59.6906 12.2481C59.6906 9.83871 57.744 7.8855 55.3427 7.8855C52.9414 7.8855 50.9948 9.83871 50.9948 12.2481C50.9948 14.6575 52.9414 16.6108 55.3427 16.6108Z" fill="#FFB9B9"/>
<path d="M66.9174 24.1671C64.4041 27.0365 60.867 28.7991 57.0697 29.0745C53.2724 29.3499 49.5195 28.1158 46.6211 25.6389L47.8654 22.1551C48.1466 21.5363 48.5903 21.006 49.1491 20.6211C49.7078 20.2361 50.3604 20.011 51.0369 19.9699L51.8285 19.9211L53.716 18.2877C53.716 18.2877 58.8019 18.1054 58.7265 18.0182L61.8072 19.8775L61.8046 19.8646L63.0157 19.9391C63.6922 19.98 64.3449 20.205 64.9037 20.59C65.4624 20.975 65.9061 21.5054 66.1872 22.1243L66.9174 24.1671Z" fill="#4A49E8"/>
<path d="M59.4665 8.19906C59.3543 7.6033 58.7487 7.33081 58.2299 7.19878C56.7249 6.81351 55.1594 6.72725 53.6214 6.94486C52.5003 7.10529 51.3526 7.45903 50.5391 8.33709C49.8831 9.07644 49.5115 10.0263 49.4909 11.0159C49.4577 11.6076 49.5894 12.197 49.8714 12.7177C49.9975 12.9602 50.1843 13.1656 50.4134 13.3138C50.6425 13.4619 50.906 13.5478 51.1782 13.5629L51.2304 13.7449C52.3559 13.5629 53.4289 13.1392 54.3761 12.5026C55.3232 11.866 56.1221 11.0317 56.7182 10.0566C56.4785 10.9154 56.0015 11.6885 55.3424 12.2868C56.8161 11.6951 58.0972 10.7044 59.0429 9.42513C59.3012 9.0812 59.5519 8.65231 59.4665 8.19906Z" fill="#2F2E41"/>
<path d="M98.493 41.7484C106.505 41.7484 113 35.2315 113 27.1923C113 19.1532 106.505 12.6362 98.493 12.6362C90.481 12.6362 83.986 19.1532 83.986 27.1923C83.986 35.2315 90.481 41.7484 98.493 41.7484Z" fill="#F2F2F2"/>
<path d="M98.0926 28.9956C100.65 28.9956 102.723 26.9153 102.723 24.3491C102.723 21.7829 100.65 19.7026 98.0926 19.7026C95.5351 19.7026 93.4618 21.7829 93.4618 24.3491C93.4618 26.9153 95.5351 28.9956 98.0926 28.9956Z" fill="#FFB6B6"/>
<path d="M109.376 36.9315C106.863 39.8009 103.326 41.5635 99.5288 41.8389C95.7315 42.1143 91.9786 40.8802 89.0802 38.4032L90.3245 34.9195C90.6057 34.3007 91.0494 33.7704 91.6082 33.3855C92.1669 33.0005 92.8195 32.7754 93.496 32.7343L94.2876 32.6855L96.1751 31.0521C96.1751 31.0521 101.261 30.8698 101.186 30.7826L104.266 32.6419L104.264 32.629L105.475 32.7035C106.151 32.7444 106.804 32.9694 107.363 33.3544C107.922 33.7394 108.365 34.2698 108.646 34.8887L109.376 36.9315Z" fill="#4A49E8"/>
<path d="M102.977 21.4674C102.585 20.0621 101.696 18.8483 100.476 18.0541C99.5041 17.4301 98.2909 17.1116 97.1895 17.4416C96.088 17.7715 95.1761 18.8561 95.2482 20.0279C95.0442 19.9741 94.8292 19.9787 94.6277 20.0412C94.4261 20.1036 94.246 20.2214 94.1077 20.3813C93.8313 20.7087 93.6392 21.099 93.5481 21.5181C93.1946 22.832 93.2181 24.2192 93.6156 25.5203L93.5938 25.707C94.1311 25.6178 94.5387 25.1552 94.7922 24.6623C95.0456 24.1694 95.1915 23.6226 95.4662 23.1418C95.7409 22.661 96.197 22.2321 96.7412 22.217L96.6933 23.0517C97.1614 22.8097 97.6296 22.5676 98.0978 22.3256C97.9864 22.5929 97.8751 22.8602 97.7637 23.1275C98.1726 22.956 98.5815 22.7845 98.9903 22.6131C98.9446 22.8701 98.8989 23.1271 98.8532 23.3841C98.9604 23.161 99.1117 22.9621 99.2977 22.7993C99.4838 22.6365 99.7008 22.5133 99.9357 22.4371C100.171 22.3609 100.418 22.3333 100.664 22.3559C100.91 22.3786 101.149 22.4511 101.366 22.569C101.855 22.8991 102.207 23.3966 102.357 23.9684C102.506 24.539 102.585 25.1254 102.595 25.715C103.227 24.3912 103.362 22.8833 102.977 21.4674Z" fill="#2F2E41"/>
<path d="M14.507 48.3658C22.519 48.3658 29.014 41.8488 29.014 33.8096C29.014 25.7705 22.519 19.2535 14.507 19.2535C6.49502 19.2535 0 25.7705 0 33.8096C0 41.8488 6.49502 48.3658 14.507 48.3658Z" fill="#F2F2F2"/>
<path d="M14.1877 35.3194C16.6183 35.3194 18.5888 33.3423 18.5888 30.9034C18.5888 28.4645 16.6183 26.4874 14.1877 26.4874C11.757 26.4874 9.78662 28.4645 9.78662 30.9034C9.78662 33.3423 11.757 35.3194 14.1877 35.3194Z" fill="#9E616A"/>
<path d="M25.2037 43.4204C22.6904 46.2898 19.1534 48.0524 15.3561 48.3278C11.5588 48.6032 7.80585 47.3691 4.90747 44.8921L6.15178 41.4084C6.43298 40.7896 6.87672 40.2593 7.43543 39.8744C7.99415 39.4894 8.64675 39.2643 9.32327 39.2232L10.1149 39.1744L12.0024 37.541C12.0024 37.541 17.0883 37.3587 17.0129 37.2715L20.0936 39.1308L20.091 39.1179L21.3021 39.1924C21.9786 39.2333 22.6313 39.4583 23.19 39.8433C23.7488 40.2283 24.1925 40.7587 24.4736 41.3776L25.2037 43.4204Z" fill="#4A49E8"/>
<path d="M10.1897 32.9454C10.181 32.9211 10.173 32.8966 10.1644 32.8723C10.1473 32.8873 10.1309 32.9029 10.1123 32.9169L10.1897 32.9454Z" fill="#2F2E41"/>
<path d="M19.4598 29.3326C19.4373 28.8845 19.3203 28.4463 19.1166 28.0469C18.913 27.6475 18.6273 27.2959 18.2783 27.0153C18.0007 26.8412 17.7559 26.6192 17.5553 26.3595C17.4585 26.161 17.3764 25.9556 17.3097 25.7449C16.9718 24.9381 16.009 24.5092 15.1453 24.6314C14.7158 24.7133 14.3071 24.8812 13.9438 25.1252C13.5804 25.3691 13.2699 25.6841 13.0306 26.0512C12.7825 25.932 12.5056 25.8865 12.2326 25.9203C11.9596 25.9541 11.7019 26.0656 11.4901 26.2417C11.2784 26.4179 11.1213 26.6512 11.0376 26.9141C10.9539 27.177 10.947 27.4585 11.0178 27.7252C10.5705 27.3637 9.847 27.6529 9.5678 28.1565C9.28859 28.6601 9.33291 29.2764 9.41592 29.8466C9.5663 30.8773 9.8168 31.8907 10.1639 32.8724C10.5994 32.4876 10.5726 31.7868 10.5194 31.1944C10.4641 30.579 10.4972 29.8276 11.0335 29.5239C11.5517 29.2305 12.1807 29.5526 12.752 29.7192C13.2038 29.8476 13.6779 29.8762 14.1417 29.803C14.6055 29.7298 15.048 29.5565 15.4386 29.2952C15.7197 29.0707 16.0148 28.8645 16.3221 28.6777C16.4772 28.5858 16.6534 28.5358 16.8336 28.5325C17.0137 28.5293 17.1916 28.573 17.3499 28.6593C17.6005 28.876 17.7688 29.1728 17.8265 29.4996C18.0465 30.2482 18.2664 30.9967 18.4864 31.7452C18.8094 31.4349 19.0631 31.0595 19.2309 30.6436C19.3987 30.2277 19.4767 29.7809 19.4598 29.3326Z" fill="#2F2E41"/>
<path d="M55.4066 45.7561C57.7462 45.7561 59.6429 43.8531 59.6429 41.5055C59.6429 39.158 57.7462 37.2549 55.4066 37.2549C53.0669 37.2549 51.1703 39.158 51.1703 41.5055C51.1703 43.8531 53.0669 45.7561 55.4066 45.7561Z" fill="#4A49E8"/>
<path d="M96.9503 57.5664C99.2899 57.5664 101.187 55.6634 101.187 53.3158C101.187 50.9683 99.2899 49.0652 96.9503 49.0652C94.6106 49.0652 92.714 50.9683 92.714 53.3158C92.714 55.6634 94.6106 57.5664 96.9503 57.5664Z" fill="#4A49E8"/>
<path d="M13.8629 63.8193C16.2025 63.8193 18.0992 61.9162 18.0992 59.5686C18.0992 57.2211 16.2025 55.318 13.8629 55.318C11.5232 55.318 9.62659 57.2211 9.62659 59.5686C9.62659 61.9162 11.5232 63.8193 13.8629 63.8193Z" fill="#4A49E8"/>
</svg>
