<svg width="109" height="72" viewBox="0 0 109 72" fill="none" xmlns="http://www.w3.org/2000/svg">
<g clip-path="url(#clip0_17_180)">
<path d="M102.167 68.3307L100.943 69.1208L97.2896 64.81L99.0965 63.6439L102.167 68.3307Z" fill="#A0616A"/>
<path d="M103.041 69.5704L99.2758 72L99.2448 71.9527C98.9921 71.567 98.9042 71.0975 99.0003 70.6474C99.0964 70.1973 99.3687 69.8035 99.7573 69.5527L100.106 68.591L101.728 68.2808L102.057 68.0687L103.041 69.5704Z" fill="#2F2E41"/>
<path d="M81.1859 70.4009L79.7257 70.4008L79.031 64.8103L81.1862 64.8105L81.1859 70.4009Z" fill="#A0616A"/>
<path d="M81.2373 71.9128L76.7466 71.9127V71.8563C76.7466 71.3962 76.9308 70.955 77.2586 70.6297C77.5864 70.3043 78.0309 70.1216 78.4945 70.1215L79.3149 69.5039L80.8453 70.1216H81.2373L81.2373 71.9128Z" fill="#2F2E41"/>
<path d="M96.3016 36.2035L83.2063 36.4893L81.9083 38.0996C81.9083 38.0996 82.0205 37.5319 81.9206 38.1555C81.8207 38.7791 79.2943 51.2126 79.7719 51.6296C80.2495 52.0465 78.8664 54.9256 78.7648 55.1012C78.6632 55.2768 77.5683 63.9432 78.7648 64.6558L79.2142 67.6808H81.3055C81.3055 67.6808 83.4005 65.2746 82.9789 64.8384C82.5573 64.4022 83.7631 62.9517 83.8092 62.174C83.8553 61.3962 84.2956 57.8685 83.9545 57.3028C83.6133 56.7372 83.1522 54.6145 84.0176 53.7915C84.8829 52.9686 88.9188 42.856 88.9188 42.856C88.9188 42.856 90.0916 54.7115 90.0889 55.6424C90.0853 56.8529 90.8863 56.2538 90.8863 57.3166C90.8863 57.5313 93.4945 63.0499 95.2474 64.775L98.8722 67.5424L100.545 66.297V64.4982C100.545 64.4982 98.9948 61.1605 98.454 60.6238C97.9131 60.087 95.9161 58.4438 95.9161 57.6923C95.9161 56.9408 94.976 56.679 95.6083 55.6827C96.2406 54.6863 96.0243 54.2569 95.808 53.8275C95.5916 53.398 96.0019 35.8031 96.0019 35.8031L96.3016 36.2035Z" fill="#2F2E41"/>
<path d="M90.8411 10.1139C93.0266 10.1139 94.7983 8.35552 94.7983 6.18646C94.7983 4.0174 93.0266 2.25903 90.8411 2.25903C88.6557 2.25903 86.884 4.0174 86.884 6.18646C86.884 8.35552 88.6557 10.1139 90.8411 10.1139Z" fill="#A0616A"/>
<path d="M94.0025 37.7045L95.1163 34.3766L97.1206 34.7429L95.8168 38.2198C95.8961 38.4235 95.9165 38.6451 95.8758 38.8597C95.8351 39.0744 95.7349 39.2734 95.5865 39.4346C95.438 39.5958 95.2472 39.7128 95.0355 39.7722C94.8238 39.8317 94.5996 39.8314 94.388 39.7713C94.1765 39.7112 93.986 39.5938 93.8381 39.4321C93.6901 39.2705 93.5905 39.0711 93.5504 38.8564C93.5103 38.6417 93.5314 38.4201 93.6113 38.2166C93.6912 38.0131 93.8266 37.8358 94.0025 37.7045Z" fill="#A0616A"/>
<path d="M70.9012 31.2731L73.6305 29.046L75.1299 30.4159L72.1599 32.6686C72.1176 32.8829 72.0159 33.0813 71.8663 33.2414C71.7166 33.4015 71.525 33.517 71.3128 33.5749C71.1007 33.6328 70.8764 33.6308 70.6653 33.5692C70.4543 33.5075 70.2647 33.3887 70.1179 33.226C69.9712 33.0632 69.873 32.8631 69.8346 32.6481C69.7962 32.4331 69.8189 32.2117 69.9003 32.0088C69.9817 31.8059 70.1185 31.6295 70.2953 31.4996C70.4721 31.3696 70.682 31.2912 70.9012 31.2731Z" fill="#A0616A"/>
<path d="M86.1031 5.49949C86.5298 5.63095 86.9411 5.70844 87.2185 5.36112C87.4959 5.0138 87.4234 4.61668 87.8361 4.44924C88.1813 4.33438 88.5572 4.35166 88.8901 4.49767C88.9501 4.51981 89.0086 4.54471 89.0658 4.56962C89.0979 4.54194 89.1299 4.51566 89.1648 4.49075C89.4271 4.30562 89.7509 4.22737 90.0696 4.27212C89.8367 4.3838 89.645 4.56532 89.5217 4.79102C89.636 4.84775 89.7517 4.90448 89.8689 4.95291C90.361 5.15273 90.8933 5.236 91.4235 5.19613C91.9537 5.15626 92.4673 4.99435 92.9235 4.72322C92.4662 5.91876 92.8217 6.34494 93.4924 7.43671L93.5188 7.50035C93.4519 7.21393 94.3289 6.88321 94.3289 7.29833C94.2903 7.72364 94.1966 8.14222 94.05 8.54369C94.9102 7.2582 95.4177 5.75409 95.0845 4.31086C95.0134 4.00783 94.9813 3.68265 94.7876 3.43635C94.5938 3.19143 94.2369 3.04752 93.9552 3.18589C93.9203 2.7166 93.7579 2.26547 93.4853 1.88046C93.2127 1.49546 92.8401 1.19096 92.4071 0.999343C91.974 0.807728 91.4968 0.736159 91.026 0.792244C90.5553 0.848329 90.1087 1.02997 89.7336 1.31786C89.3851 1.58492 89.1104 1.93501 88.7995 2.24635C88.4886 2.55769 88.1205 2.84135 87.6856 2.91883C87.4095 2.96727 87.0986 2.93821 86.8783 3.11118C86.6232 3.31182 86.6204 3.66467 86.6218 4.00369C86.8714 3.99662 87.1175 4.06358 87.3286 4.19602C87.0702 4.20247 86.8204 4.28963 86.6148 4.44509C86.6109 4.44752 86.6071 4.4503 86.6037 4.4534C86.5284 5.02349 86.5591 5.14388 86.1031 5.49949Z" fill="#2F2E41"/>
<path d="M100.026 18.3727C99.9334 17.9346 99.7512 17.5201 99.4901 17.1552C99.2291 16.7903 98.895 16.4828 98.5087 16.252C98.4798 16.1054 98.4286 16.0117 98.3499 15.9839C97.2252 15.5871 94.0853 13.7537 94.0853 13.7537L93.8221 11.6573L88.1403 11.3864L86.6864 13.7537C86.6864 13.7537 82.9202 14.1295 82.99 15.4978C82.078 16.6269 78.0178 21.6721 75.5843 25.0086C74.4212 26.6032 73.6293 27.8079 73.731 28.0074C74.0735 28.6793 73.5923 28.226 73.0541 28.3474C72.5158 28.4688 72.7768 28.7844 72.789 29.2498C72.8012 29.7152 70.95 30.6946 70.95 30.6946C72.0794 31.0952 73.4943 32.7424 73.4943 32.7424C73.4943 32.7424 74.8644 31.3098 75.1132 31.1601C75.3619 31.0104 75.5005 30.7918 76.2875 30.5207C77.0745 30.2496 76.7442 30.0432 76.8013 29.4685C76.8584 28.8938 77.0501 29.3188 78.1551 28.7886C79.2602 28.2585 78.3631 28.4608 78.6689 27.7364C78.9748 27.012 78.8769 27.4086 79.8719 26.8097C80.4699 26.4497 81.0639 25.921 81.8904 25.0086C82.4389 24.403 83.0897 23.6286 83.9129 22.6212C83.9185 22.6143 83.9237 22.6072 83.9293 22.6004C83.9846 23.417 84.0272 24.234 84.0526 25.0086C84.1245 27.2094 84.0558 29.0652 83.733 29.5763C83.28 30.2936 82.5131 32.6941 81.8898 34.8017C81.7691 35.2105 81.7478 35.6418 81.8276 36.0603C81.9074 36.4788 82.0861 36.8725 82.349 37.2092C82.6118 37.5459 82.9514 37.8159 83.3398 37.997C83.7282 38.1782 84.1543 38.2654 84.5832 38.2514C88.4504 38.1249 94.1095 37.8321 95.2124 37.1897C95.8123 37.2748 96.405 37.4041 96.9856 37.5765C96.9856 37.5765 97.3759 35.6397 97.506 35.3814C97.6361 35.1232 97.6361 34.8649 98.1565 34.2193C98.6769 33.5737 98.2866 33.5737 98.0264 33.0572C97.7662 32.5407 98.1565 32.7989 98.807 31.7659C99.4575 30.7329 98.807 31.3786 98.6769 30.6038C98.5468 29.8291 98.6769 30.2164 99.1973 29.1835C99.6285 28.3275 99.8811 27.2045 100.177 25.0086C100.238 24.5543 100.301 24.0553 100.368 23.502C100.589 21.6742 100.31 19.7222 100.026 18.3727Z" fill="#DADADA"/>
<path d="M12.0114 63.8391L12.939 64.8122L17.2465 61.6449L15.8774 60.2086L12.0114 63.8391Z" fill="#C78F8F"/>
<path d="M13.5315 64.3772L12.4813 63.3981L12.2234 63.1582L9.54968 65.2798L10.2452 66.0094L11.0639 65.4883L10.6878 66.4737L12.5318 68.408C12.6201 68.5008 12.736 68.5631 12.8626 68.5859C12.9892 68.6087 13.1197 68.5907 13.2353 68.5346C13.3508 68.4785 13.4453 68.3872 13.5049 68.2741C13.5644 68.1609 13.586 68.0318 13.5665 67.9057L13.1685 65.3503L13.8698 64.6921L13.5315 64.3772Z" fill="#2F2E41"/>
<path d="M32.3992 28.4083L32.1051 31.5951C32.1051 31.5951 31.5917 33.996 31.9472 33.8014C32.3026 33.6068 31.6653 34.4827 31.8331 35.2423C32.001 36.0018 30.3993 41.6659 31.1248 41.0791C31.8502 40.4924 30.7055 44.5459 29.9815 46.5456C29.7599 47.1638 29.5321 47.7895 29.3029 48.4107C29.2577 48.5365 29.2124 48.6607 29.1657 48.7865C28.8685 49.5947 28.5714 50.391 28.2864 51.1425C28.2457 51.2473 28.2064 51.352 28.1673 51.4554C28.1657 51.4583 28.1657 51.4613 28.1642 51.4613C27.2261 53.9116 26.4223 55.8396 26.101 56.1585C25.9336 56.3246 23.2778 58.2286 20.6008 60.1356C17.7911 62.1369 14.9587 64.1427 14.9587 64.1427L12.3134 61.3885C12.3134 61.3885 12.3767 61.3705 12.4958 61.3346C12.716 61.2717 13.1233 61.1534 13.6572 60.9963C15.8832 60.3451 13.0554 59.3318 15.0764 58.6073C15.6464 58.4037 16.0265 58.2451 16.1124 58.1612C16.6147 57.6748 17.2888 56.5147 17.607 57.0012C17.9253 57.4876 19.3686 53.8728 19.7848 53.515C20.008 53.3219 20.7365 52.4193 21.3609 51.626C21.8977 50.9434 22.3593 50.3402 22.3593 50.3402C22.3593 50.3402 22.3683 50.0168 22.3819 49.5019C22.4015 48.74 22.4302 47.556 22.4604 46.3705C22.4588 46.369 22.4588 46.369 22.4604 46.369C22.4709 45.9229 22.4814 45.4769 22.492 45.0532C22.4996 44.7254 22.5071 44.4096 22.5146 44.1177C22.5342 43.2436 22.5478 42.582 22.5478 42.4173C22.5478 41.877 22.5478 42.2976 22.9776 41.9712C23.0418 41.9212 23.1028 41.8672 23.1601 41.8096C23.252 41.7275 23.3368 41.6378 23.4135 41.5416C23.4452 41.4743 23.2476 41.5656 22.9912 41.5147C22.8523 41.4871 22.7239 41.4218 22.6202 41.3261C22.0802 40.8441 22.6624 39.3623 22.6624 39.3623C21.4348 36.9254 21.5238 34.927 22.0984 33.3868C22.528 32.2815 23.21 31.2901 24.0906 30.4904C24.4258 30.1734 24.791 29.8892 25.1811 29.6416L25.2188 29.4396L25.6336 27.2108C25.8541 27.0905 26.0835 26.987 26.3198 26.9009C27.0564 26.6386 27.8469 26.5605 28.6212 26.6734C29.3908 26.7839 30.1358 27.0234 30.8247 27.3814C31.3877 27.6622 31.9161 28.0068 32.3992 28.4083Z" fill="#2F2E41"/>
<path d="M20.8158 68.8041L22.1597 68.9282L23.2922 63.7275L21.3085 63.5444L20.8158 68.8041Z" fill="#C78F8F"/>
<path d="M24.6864 70.8425L22.6895 69.1825L22.78 68.2276L22.3156 68.2126L20.8768 68.1662H20.8752L20.5224 68.1542L19.9236 71.4982L20.9325 71.5909L21.1995 70.6629L21.572 71.6509L22.1059 71.7003L24.243 71.8978C24.2611 71.8993 24.2807 71.9008 24.2988 71.9008C24.3838 71.901 24.4678 71.8831 24.5453 71.8485C24.6228 71.814 24.6919 71.7634 24.7482 71.7003C24.8357 71.6052 24.8892 71.4842 24.9005 71.356C24.9094 71.2596 24.8945 71.1625 24.8572 71.0731C24.8199 70.9836 24.7613 70.9045 24.6864 70.8425Z" fill="#2F2E41"/>
<path d="M28.2864 51.1425C27.7751 53.9042 25.6109 60.3795 24.3018 64.1696C23.7061 65.9015 23.2898 67.0735 23.2898 67.0735L22.6112 66.861H22.6096L21.4619 66.5017L21.0441 66.37H21.0426L20.5359 66.2098C20.5359 66.2098 20.5947 63.1173 20.6008 60.1356C20.6052 58.8857 20.5992 57.6538 20.5751 56.6778C20.548 55.6136 20.5012 54.8517 20.4243 54.7005C20.106 54.0808 20.6385 54.0149 21.201 53.8592C21.765 53.7021 21.3246 53.4656 21.1059 52.9627C20.9582 52.6273 21.2492 52.1798 21.4559 51.9253C21.5129 51.8537 21.5738 51.7852 21.6384 51.7202C21.6384 51.7202 21.5388 51.6858 21.3609 51.6259C21.8977 50.9434 22.3592 50.3402 22.3592 50.3402C22.3592 50.3402 22.3683 50.0168 22.3818 49.5019C22.4015 48.74 22.4302 47.556 22.4603 46.3705C22.4588 46.369 22.4588 46.369 22.4603 46.369C22.4709 45.9229 22.4814 45.4768 22.492 45.0532C23.3547 45.7104 24.1932 46.354 24.9533 46.9498C24.9543 46.9505 24.955 46.9514 24.9555 46.9524C24.9561 46.9535 24.9563 46.9546 24.9563 46.9558C26.7827 48.3882 28.1537 49.5379 28.3467 49.9031C28.4342 50.0677 28.404 50.5078 28.2864 51.1425Z" fill="#2F2E41"/>
<path d="M24.8719 23.0214L25.1546 25.6232L24.9884 29.035L32.6024 28.1372L33.3177 23.0214L32.4062 23.0303L24.8719 23.0214Z" fill="#FFB6B6"/>
<path d="M31.3485 14.6176L28.483 12.3723L26.9788 12.2855L24.7468 13.7047L24.2003 16.4719L22.9077 19.5881L24.8035 27.9977C24.8035 27.9977 24.9814 28.6012 24.5154 28.6737C24.0495 28.7462 24.1053 29.6357 24.1053 29.6357C24.1053 29.6357 24.2002 30.4066 23.7478 30.4745C23.2953 30.5424 22.0888 30.5424 23.1446 31.8896C24.2003 33.2367 32.5504 28.1415 32.5504 28.1415L33.7632 21.8256C33.7632 21.8256 36.1152 18.6903 33.5822 16.8946L31.3485 14.6176Z" fill="#DADADA"/>
<path d="M18.8391 33.7114C18.7129 33.555 18.6227 33.3731 18.5749 33.1784C18.5272 32.9836 18.523 32.7809 18.5628 32.5844C18.6025 32.388 18.6852 32.2025 18.8049 32.0412C18.9247 31.8798 19.0786 31.7465 19.2559 31.6506L22.8603 19.6451L25.1141 20.7713L21.1888 32.2784C21.3314 32.5847 21.3559 32.9323 21.2575 33.2552C21.1592 33.5782 20.9449 33.8541 20.6553 34.0307C20.3656 34.2074 20.0208 34.2724 19.6861 34.2136C19.3513 34.1547 19.05 33.976 18.8391 33.7114Z" fill="#C78F8F"/>
<path d="M25.2644 13.5936C25.2644 13.5936 24.6202 13.2538 24.1795 14.7244C23.8267 15.9017 20.964 22.9141 20.9274 24.619C20.6919 24.6686 20.4796 24.7945 20.324 24.977C20.1685 25.1595 20.0785 25.3881 20.0684 25.6269L23.6079 26.0977C24.2264 25.5799 24.3886 24.8806 24.1493 24.6731L24.9178 22.5899L28.1239 15.9619L25.7345 13.8311L25.2644 13.5936Z" fill="#DADADA"/>
<path d="M44.1771 29.7652C44.2228 29.57 44.2248 29.3672 44.1831 29.1711C44.1413 28.9751 44.0567 28.7905 43.9352 28.6304C43.8138 28.4703 43.6585 28.3386 43.4802 28.2445C43.3019 28.1504 43.105 28.0963 42.9034 28.0859L34.6351 18.7136L32.8811 20.7908L41.4341 29.4816C41.439 29.819 41.5684 30.1428 41.7978 30.3918C42.0272 30.6408 42.3406 30.7977 42.6787 30.8326C43.0168 30.8676 43.3561 30.7782 43.6323 30.5815C43.9084 30.3847 44.1023 30.0943 44.1771 29.7652Z" fill="#C78F8F"/>
<path d="M29.6181 14.3834C29.6181 14.3834 30.0509 13.8005 31.089 14.9373C31.9201 15.8474 37.5567 20.9416 38.3324 22.4632C38.5665 22.4067 38.8127 22.4292 39.0325 22.5269C39.2522 22.6247 39.433 22.7923 39.5462 23.0032L36.5599 24.9469C35.7766 24.7455 35.3256 24.1846 35.451 23.8948L33.8504 22.3463L28.0717 17.7461L29.2977 14.7993L29.6181 14.3834Z" fill="#DADADA"/>
<path d="M69.4331 33.9962C69.1944 33.9144 68.9974 33.7433 68.8838 33.5195C68.7703 33.2956 68.7492 33.0366 68.8251 32.7976C68.8413 32.7493 68.8615 32.7023 68.8855 32.6573L66.6019 30.1816L67.4599 28.5896L70.2188 32.3166C70.3992 32.4299 70.5368 32.5992 70.6101 32.7982C70.6834 32.9972 70.6882 33.2147 70.6239 33.4168C70.5861 33.5314 70.526 33.6375 70.447 33.7291C70.3679 33.8206 70.2715 33.8958 70.1631 33.9504C70.0548 34.0049 69.9367 34.0378 69.8156 34.0471C69.6944 34.0563 69.5726 34.0418 69.4572 34.0044C69.4491 34.0017 69.4411 33.999 69.4331 33.9962Z" fill="#FFB6B6"/>
<path d="M54.7928 15.1922C54.7173 15.5418 54.7093 15.9024 54.7691 16.2549C54.7849 16.3547 54.8067 16.4534 54.8343 16.5506C54.9365 16.9138 55.0337 17.2484 55.1275 17.5504C55.1826 17.738 55.2393 17.9147 55.2934 18.0787C55.6059 19.0363 55.85 19.5785 56.023 19.6926C56.1068 19.7484 56.1911 19.7995 56.2727 19.8494C56.6913 20.1037 56.9947 20.2879 56.7918 20.7571C56.7623 20.8241 56.7273 20.8886 56.6872 20.9499C56.6199 21.053 56.5457 21.1514 56.4648 21.2443C56.4187 21.2969 56.3762 21.3524 56.3375 21.4105C56.287 21.4847 56.265 21.5472 56.2922 21.6038C56.3266 21.6735 56.4217 21.7081 56.626 21.7179C56.6584 21.7193 56.6956 21.7213 56.7354 21.7212C56.7483 21.722 56.7617 21.7215 56.7766 21.7216C56.8029 21.722 56.8326 21.7222 56.8629 21.7211C57.1152 21.7163 57.4408 21.8481 57.7893 22.0494C58.8176 22.6439 60.0295 23.8404 60.0442 23.8553L67.6105 31.5339L67.7579 31.4359L68.1082 31.2024L68.2292 31.1222L68.3675 31.03L68.9692 30.6303L69.2733 30.4286L67.3217 26.8723L67.1093 26.4857L66.9271 26.1521L63.2014 19.3612L61.7215 17.0265L61.3911 16.5063L59.9838 14.2882C59.7851 13.9743 59.526 13.7024 59.2214 13.4879C58.9168 13.2734 58.5726 13.1205 58.2085 13.038C57.8444 12.9556 57.4674 12.9451 57.0992 13.0072C56.731 13.0693 56.3787 13.2028 56.0625 13.4C56.0412 13.4133 56.02 13.4269 55.999 13.4407C55.3833 13.8472 54.9508 14.4752 54.7928 15.1922Z" fill="#DADADA"/>
<path d="M55.2949 68.8518L53.9087 68.8401L53.295 63.4097L55.341 63.4269L55.2949 68.8518Z" fill="#FFB6B6"/>
<path d="M55.6626 68.2171L55.3007 68.1932L53.8242 68.093L53.349 68.0615L53.3401 69.0449L51.126 70.5358C51.0167 70.6095 50.9339 70.716 50.8899 70.8397C50.8459 70.9634 50.8428 71.0979 50.8812 71.2234C50.9196 71.349 50.9975 71.459 51.1034 71.5376C51.2093 71.6161 51.3377 71.659 51.4699 71.6599L54.2253 71.6824L54.7079 70.7124L54.8844 71.6884L55.925 71.6973L55.6626 68.2171Z" fill="#2F2E41"/>
<path d="M69.8897 67.8464L68.5647 68.2507L66.3281 63.2575L68.2838 62.6609L69.8897 67.8464Z" fill="#FFB6B6"/>
<path d="M70.0475 67.1318L69.6946 67.2172L68.2574 67.563L67.7944 67.6752L68.0854 68.6168L66.4279 70.7004C66.346 70.8033 66.2994 70.9296 66.2949 71.0607C66.2904 71.1917 66.3282 71.3208 66.4028 71.4291C66.4774 71.5374 66.5849 71.6192 66.7096 71.6626C66.8343 71.706 66.9697 71.7087 67.0961 71.6703L69.7308 70.8665L69.8952 69.7963L70.3612 70.6734L71.3552 70.3696L70.0475 67.1318Z" fill="#2F2E41"/>
<path d="M52.5067 23.1896L49.8613 30.8196L49.774 31.4302C49.1074 32.0583 49.9448 32.2653 49.6308 32.4309C49.3168 32.5966 49.1057 33.0609 49.5288 33.1439C49.9519 33.2268 51.316 62.9871 53.1153 64.1426C54.9147 65.2982 56.0097 66.134 55.6792 64.442C55.5461 63.7603 55.7344 60.1053 56.0068 55.9836C56.0377 55.5165 56.5254 55.022 56.1023 54.5679C55.6792 54.1137 56.1544 53.8149 56.181 53.438C56.5605 48.0557 56.9987 42.742 56.9987 42.742C56.9987 42.742 59.803 52.3005 60.5312 51.5606C61.2594 50.8206 60.9712 52.6425 61.1937 53.1868C61.3797 53.6418 60.5863 54.5354 61.7523 54.5491C62.9184 54.5628 65.657 63.8538 65.9348 63.8433C66.4852 63.8224 68.0324 63.8813 68.9511 63.6936C69.4048 63.6009 67.3909 56.5666 65.7091 50.4924C65.575 50.008 64.8451 49.9967 65.3145 49.0615C65.784 48.1263 63.4482 42.0751 63.6487 41.7952C64.1807 41.0523 64.3833 40.7295 63.8586 40.6808C63.334 40.6321 63.179 40.9178 63.1506 40.1972C63.1223 39.4766 63.0317 37.6997 63.0317 37.6997C63.0317 37.6997 62.6517 30.6722 59.9903 26.7895L59.7634 24.4826L52.5067 23.1896Z" fill="#2F2E41"/>
<path d="M59.1156 8.62195L55.6075 9.11771L55.3958 11.6389L53.6647 14.3265C53.6647 14.3265 49.8168 17.0141 52.5004 21.2597C51.4791 24.9169 50.4638 28.4244 49.4958 30.7628C48.7417 35.403 55.4972 35.8478 63.2201 34.2056C63.2201 34.2056 63.1136 32.2215 62.4128 31.2676C61.7119 30.3137 62.0934 30.1055 62.0934 30.1055L61.6037 28.3235C61.8809 25.7476 60.9452 25.5164 60.5054 24.3263L61.8405 11.9781L59.1156 8.62195Z" fill="#DADADA"/>
<path d="M42.2748 30.2054C42.3119 29.9575 42.4451 29.7338 42.6459 29.5818C42.8468 29.4299 43.0994 29.3618 43.3501 29.3919C43.4009 29.3988 43.4511 29.4099 43.5001 29.425L45.5322 26.7421L47.2667 27.2865L44.0826 30.6631C44.0036 30.8599 43.8612 31.0253 43.6776 31.1334C43.494 31.2415 43.2794 31.2862 43.0675 31.2605C42.8243 31.2287 42.6037 31.1023 42.4543 30.9091C42.305 30.7159 42.2391 30.4717 42.2711 30.2303C42.2722 30.222 42.2734 30.2137 42.2748 30.2054Z" fill="#FFB6B6"/>
<path d="M60.3244 13.5012C60.2746 13.4398 60.2203 13.3799 60.1631 13.3215C59.7647 12.914 59.2517 12.6355 58.6911 12.5222C58.1306 12.409 57.5487 12.4664 57.0215 12.6869C56.9703 12.7078 56.9189 12.7318 56.8692 12.7557C55.0669 13.6343 54.0942 14.2196 53.9765 14.4936C53.9358 14.5864 53.9011 14.6777 53.8664 14.766C53.8332 14.8528 53.8016 14.9351 53.7684 15.0099C53.6297 15.3303 53.4698 15.5294 53.0626 15.4395C52.9276 15.4068 52.7973 15.357 52.675 15.2914C52.6192 15.2644 52.5679 15.236 52.5196 15.209C52.3447 15.1133 52.218 15.0444 52.1321 15.1073C52.0491 15.1686 52.0461 15.3243 52.1215 15.6851C52.1465 15.8356 52.1424 15.9895 52.1094 16.1386C52.0097 16.5734 51.8536 16.9935 51.6449 17.3885C51.3323 18.0075 50.9807 18.6065 50.5922 19.1817L47.0043 24.259L46.7615 24.6018L46.496 24.9775L44.3785 27.9742L44.5037 28.1014L45.0286 28.6328L45.1447 28.7511L45.2503 28.8588L45.5233 29.1358L45.7796 29.3947L51.5001 24.7694L52.1381 24.253L53.2813 23.328L55.6234 21.4345L60.056 17.363C60.3358 17.1081 60.5608 16.7996 60.7176 16.4563C60.8744 16.1129 60.9597 15.7416 60.9684 15.3647C60.9684 15.3393 60.9699 15.3153 60.9699 15.2899C60.9716 14.6371 60.7432 14.0044 60.3244 13.5012Z" fill="#DADADA"/>
<path d="M57.0095 8.53022C59.1744 8.53022 60.9295 6.78834 60.9295 4.63962C60.9295 2.4909 59.1744 0.749023 57.0095 0.749023C54.8445 0.749023 53.0895 2.4909 53.0895 4.63962C53.0895 6.78834 54.8445 8.53022 57.0095 8.53022Z" fill="#FFB6B6"/>
<path d="M62.2044 10.0345C62.7305 10.7818 63.0824 11.6359 63.2346 12.535C62.8107 12.8042 62.3171 12.9456 61.8138 12.942C61.7967 12.8766 61.7796 12.8112 61.7601 12.7458C61.6143 12.2392 61.3973 11.7555 61.1156 11.3089C61.1542 11.7905 61.0885 12.2746 60.9227 12.7288C60.6568 12.6088 60.3718 12.5359 60.0805 12.5132C59.8432 12.5131 59.6092 12.5679 59.3969 12.6731C59.1504 11.8614 58.9233 11.1151 58.7622 10.5796C58.7573 11.922 56.775 13.0922 54.612 12.9226C54.5339 12.8742 55.3176 10.6669 55.2419 10.616C55.0686 10.5021 54.9001 10.3785 54.7317 10.2574C55.4396 9.17188 56.2086 8.00886 56.0768 7.83442C56.0866 8.05007 55.3102 9.08709 54.4656 10.066C53.9968 9.72433 56.6603 4.16605 55.3444 3.71538C55.3224 3.91164 55.0319 3.91164 54.678 3.87046C54.5846 3.54664 54.4457 3.23749 54.2654 2.95215C54.2888 3.23959 54.254 3.52878 54.1628 3.80261C53.8133 3.80271 53.4647 3.83925 53.1229 3.91164C53.0438 3.78812 52.9565 3.66994 52.8617 3.55789C52.871 3.69445 52.8669 3.83159 52.8495 3.96737C52.5003 4.04248 52.2123 4.1297 52.1708 4.19998C51.8974 4.10063 52.3636 3.65239 52.1928 3.41978C51.7582 2.83828 52.4027 1.99024 52.8104 1.38934C53.6478 0.158479 55.486 -0.267964 56.7872 0.471034C56.8458 0.269924 57.1461 0.136667 57.5318 0.0470175C57.6953 0.011255 57.8626 -0.00421092 58.0299 0.000978572C59.6899 0.030052 61.9945 1.38933 62.0848 3.03453C62.0921 3.19929 62.1044 3.37859 62.1166 3.57C62.2337 5.41146 62.0897 7.10996 63.3567 8.45712C63.8157 8.94413 63.8206 11.2508 63.6448 12.438C63.1882 11.9607 62.8635 10.1047 62.2044 10.0345Z" fill="#2F2E41"/>
<path d="M24.3742 6.25738C24.0299 7.1085 23.0585 8.78228 22.9269 9.69537L22.9861 9.63757C23.0991 9.8291 23.2274 10.0113 23.37 10.1823C23.6254 9.91603 23.934 9.70548 24.2759 9.56406C24.0892 9.94432 23.981 10.3578 23.9579 10.7802C24.3244 11.9207 26.0192 11.4128 27.0122 11.2883C28.0038 12.4141 29.3231 12.7078 31.0506 12.0606C31.5338 12.11 32.0747 12.1399 32.4133 11.8566C32.7518 11.5732 32.5502 11.0485 32.7324 10.6516C34.0299 7.82448 32.8324 6.80447 31.8151 5.52256C31.5912 5.24046 31.5921 4.81947 31.3197 4.55032C30.9417 4.17724 30.3622 4.06248 29.828 3.97055C29.9668 3.97781 30.1051 3.94949 30.2297 3.88832C30.3542 3.82715 30.4608 3.73518 30.5392 3.62128C30.6079 3.50652 30.6434 3.37515 30.6417 3.24166C30.64 3.10816 30.6012 2.97773 30.5295 2.86474C30.3384 2.55037 29.9414 2.36755 29.5584 2.32189C29.181 2.29645 28.802 2.32879 28.4345 2.41777C28.1965 2.44884 27.966 2.52196 27.754 2.63367C27.6539 2.68664 27.5726 2.76867 27.5207 2.86879C27.4689 2.9689 27.4492 3.08233 27.464 3.1939C27.496 3.29694 27.5509 3.39149 27.6248 3.47051C27.6986 3.54954 27.7895 3.61099 27.8907 3.65028C28.0449 3.71499 28.2071 3.75905 28.373 3.78132C27.6109 3.68317 26.8368 3.81765 26.1536 4.16686C25.2975 4.62012 24.7197 5.4067 24.3742 6.25738Z" fill="#2F2E41"/>
<path d="M29.0102 11.029C30.7005 11.029 32.0707 9.66909 32.0707 7.99151C32.0707 6.31393 30.7005 4.95398 29.0102 4.95398C27.3199 4.95398 25.9497 6.31393 25.9497 7.99151C25.9497 9.66909 27.3199 11.029 29.0102 11.029Z" fill="#C78F8F"/>
<path d="M26.0652 6.36288C26.2427 6.89516 26.7498 7.06668 27.2185 7.17365C27.3662 7.20784 27.5149 7.23969 27.665 7.26804C27.7204 7.19934 27.7793 7.13201 27.8408 7.06837C28.0962 6.80209 28.4048 6.59154 28.7467 6.45013C28.5988 6.7505 28.5006 7.0725 28.4556 7.40382C28.739 7.44463 29.0239 7.47796 29.3104 7.50385C29.5528 7.55505 29.8057 7.51188 30.017 7.38325C30.2282 7.25462 30.3815 7.05037 30.4453 6.8127C30.7061 7.23599 31.0145 7.63463 31.4362 7.80278C31.6774 7.88878 31.94 7.89585 32.1855 7.82296C32.431 7.75006 32.6465 7.60103 32.8004 7.39772C33.0436 7.06606 33.2122 6.68646 33.2948 6.28457C33.4145 5.81321 33.481 5.27023 33.246 4.97117C33.0578 4.72912 32.7331 4.72478 32.4334 4.74625C31.7721 4.7966 31.1178 4.91434 30.4808 5.0976L30.4268 5.21795C30.5363 4.5652 30.2989 3.93717 29.8595 3.71382C29.5631 3.56449 29.2066 3.58953 28.8602 3.61982C28.4152 3.63952 27.9755 3.72391 27.5552 3.87029C27.073 4.05437 26.6599 4.38182 26.3724 4.80783C26.0649 5.27122 25.9121 5.9032 26.0652 6.36288Z" fill="#2F2E41"/>
<path d="M30.4283 3.52385C30.3981 3.51501 30.4763 3.52637 30.4492 3.5271C30.4627 3.52632 30.4761 3.52446 30.4892 3.52153C30.4915 3.52108 30.5219 3.51143 30.5017 3.51853C30.5472 3.50504 30.5877 3.47877 30.6185 3.44291C30.6903 3.35467 30.7467 3.25505 30.7853 3.14822C30.8339 3.00704 30.9121 2.87766 31.0147 2.76858C31.0438 2.73956 31.0794 2.71776 31.1186 2.70496C31.1578 2.69215 31.1995 2.6887 31.2402 2.69488C31.281 2.70106 31.3198 2.7167 31.3533 2.74053C31.3869 2.76435 31.4143 2.7957 31.4334 2.83202C31.4721 2.97214 31.4588 3.1214 31.396 3.25263C31.3522 3.38617 31.2869 3.51182 31.2027 3.62472C31.0616 3.80934 30.8695 3.94925 30.6497 4.02739C30.3953 4.11909 30.1179 4.12696 29.8586 4.04982C29.8244 4.03572 29.795 4.01203 29.7741 3.98165C29.7531 3.95127 29.7416 3.9155 29.7408 3.87871C29.74 3.84191 29.75 3.80568 29.7695 3.77442C29.7891 3.74316 29.8174 3.71822 29.851 3.70265L30.2834 3.52699C30.3061 3.51695 30.3307 3.51147 30.3555 3.51084C30.3804 3.51022 30.4052 3.51447 30.4284 3.52335C30.4516 3.53224 30.4729 3.54558 30.4909 3.56261C30.5089 3.57965 30.5234 3.60004 30.5335 3.62263C30.5435 3.64522 30.549 3.66956 30.5496 3.69425C30.5502 3.71895 30.5459 3.74352 30.5369 3.76655C30.5279 3.78959 30.5145 3.81065 30.4973 3.82851C30.4801 3.84638 30.4595 3.8607 30.4367 3.87067L30.4359 3.87103L30.0035 4.04668L29.9959 3.69951C30.0498 3.71497 30.1054 3.72439 30.1614 3.7276C30.2212 3.73355 30.2816 3.73102 30.3407 3.7201C30.3973 3.71273 30.4529 3.69927 30.5066 3.67995C30.5409 3.66749 30.5747 3.65331 30.6076 3.63746C30.6195 3.6317 30.6314 3.62572 30.6431 3.61951C30.6423 3.61996 30.6926 3.59089 30.6705 3.60454C30.7264 3.56908 30.7789 3.52851 30.8273 3.48337C30.8443 3.46737 30.86 3.45001 30.8743 3.43146C30.8989 3.40142 30.9217 3.36999 30.9427 3.33731C30.9853 3.2681 31.019 3.1939 31.0431 3.11642C31.0541 3.08385 31.0634 3.05074 31.0709 3.01722C31.073 2.99882 31.0763 2.98058 31.0809 2.96263C31.097 2.91987 31.0779 2.9876 31.0963 3.00613L31.176 3.06443C31.191 3.06885 31.2068 3.06988 31.2222 3.06743C31.2376 3.06498 31.2523 3.05911 31.2651 3.05027C31.2746 3.03708 31.2725 3.03927 31.2589 3.05683C31.2432 3.0775 31.2287 3.09915 31.2157 3.12163C31.1871 3.17457 31.1613 3.22891 31.1383 3.28445C31.0907 3.40257 31.0305 3.5153 30.9588 3.62074C30.8886 3.72739 30.7862 3.8093 30.6663 3.85481C30.5464 3.90032 30.4151 3.90709 30.291 3.87417C30.2445 3.85578 30.2071 3.81997 30.1869 3.77445C30.1667 3.72894 30.1654 3.67738 30.1832 3.6309C30.2022 3.58509 30.2383 3.54837 30.284 3.52841C30.3297 3.50846 30.3814 3.50683 30.4283 3.52385Z" fill="#2F2E41"/>
</g>
<defs>
<clipPath id="clip0_17_180">
<rect width="109" height="72" fill="white"/>
</clipPath>
</defs>
</svg>
